<svg width="20" height="20" viewBox="0 0 20 20" fill="none" xmlns="http://www.w3.org/2000/svg">
<path d="M12.5747 3.2914C12.5357 3.2509 12.4888 3.21884 12.4369 3.19721C12.385 3.17558 12.3292 3.16484 12.273 3.16566C12.1636 3.165 12.0583 3.20712 11.9796 3.28302L2.82734 12.4373C2.78806 12.4763 2.75688 12.5226 2.73561 12.5737C2.71433 12.6248 2.70338 12.6796 2.70338 12.7349C2.70338 12.7902 2.71433 12.845 2.73561 12.8961C2.75688 12.9472 2.78806 12.9935 2.82734 13.0325L6.96766 17.1737C7.0476 17.254 7.15612 17.2992 7.26938 17.2995C7.32419 17.2991 7.37838 17.2879 7.42876 17.2663C7.47914 17.2447 7.52469 17.2132 7.56272 17.1737L16.7066 8.02782C16.7839 7.94806 16.8272 7.84132 16.8272 7.73022C16.8272 7.61912 16.7839 7.51239 16.7066 7.43262L12.5747 3.2914Z" fill="black"/>
<path d="M1.98083 14.0217C1.92693 13.9715 1.86097 13.936 1.78934 13.9188C1.71771 13.9016 1.64284 13.9032 1.57201 13.9234C1.50117 13.9436 1.43677 13.9819 1.38505 14.0343C1.33332 14.0868 1.29604 14.1518 1.27681 14.2229L0.0112473 19.4791C-0.00552403 19.5493 -0.00350877 19.6226 0.0170902 19.6918C0.0376891 19.761 0.0761445 19.8235 0.128584 19.8731C0.179094 19.9242 0.241664 19.9617 0.310514 19.9822C0.379363 20.0027 0.452271 20.0055 0.522501 19.9904L5.81105 18.7246C5.88312 18.7074 5.94922 18.6711 6.00234 18.6195C6.05545 18.5678 6.09361 18.5028 6.11277 18.4312C6.13224 18.3598 6.13322 18.2846 6.11562 18.2128C6.09803 18.1409 6.06243 18.0747 6.0122 18.0204L1.98083 14.0217Z" fill="black"/>
<path d="M19.3886 2.38603L17.6118 0.608828C17.2165 0.218724 16.6836 0 16.1283 0C15.573 0 15.0401 0.218724 14.6448 0.608828L13.4631 1.79922C13.423 1.83685 13.3911 1.8823 13.3692 1.93277C13.3474 1.98323 13.3361 2.03764 13.3361 2.09263C13.3361 2.14762 13.3474 2.20202 13.3692 2.25249C13.3911 2.30295 13.423 2.3484 13.4631 2.38603L17.6118 6.57755C17.6494 6.61765 17.6949 6.64961 17.7453 6.67146C17.7958 6.6933 17.8502 6.70457 17.9051 6.70457C17.9601 6.70457 18.0145 6.6933 18.065 6.67146C18.1154 6.64961 18.1609 6.61765 18.1985 6.57755L19.3886 5.34525C19.7801 4.95241 20 4.42033 20 3.86564C20 3.31095 19.7801 2.77887 19.3886 2.38603Z" fill="black"/>
</svg>
